# xmcd CD database file
#
# Track frame offsets:
#	150
#	11201
#	23867
#	38154
#	50282
#	61767
#	75318
#	86763
#	98447
#	112337
#	122454
#	136455
#	147240
#	160026
#	170962
#	183153
#	196757
#	208047
#	217852
#	231040
#	242032
#	254930
#	268847
#	281513
#	294220
#
# Disc length: 4083 seconds
#
# Revision: 1
# Processed by: cddbd v1.5.2PL0 Copyright (c) Steve Scherf et al.
# Submitted via: CDex 1.70beta2
#
DISCID=630ff119
DTITLE=Various Artist - Essential Blues Anthology
DYEAR=2008
DGENRE=Blues
TTITLE0=Screamin' Jay Hawkins - I Put a Spell On You
TTITLE1=Muddy Waters - Just Make Love to Me
TTITLE2=Elmore James - Dust My Broom
TTITLE3=B.B. King - Every Day I Have The Blues
TTITLE4=Chuch Willis - C.C. Rider
TTITLE5=Bo Diddley - I'm a Man
TTITLE6=Smiley Lewis - I Hear You Knocking
TTITLE7=John Lee Hooker - Queen Bee
TTITLE8=Howlin' Wolf - Smoke Stack Lightning
TTITLE9=Jimmy Reed - Ain't That Loving You Baby
TTITLE10=Otis Rush - Can't Quit You Baby
TTITLE11=Little Walter And His Jukes - Who
TTITLE12=Sonny Boy Williamson - Keep It To Yourself
TTITLE13=Smokey Hogg - When I've Been Drinkin'
TTITLE14=Bobby Bland - It's My Life
TTITLE15=Guitar Slim - The Things That I Used to Do
TTITLE16=T-Bone Walker - Wanderin' Heart
TTITLE17=Lil' Son Jackson - Thrill Me Baby
TTITLE18=Memphis Slim - Memphis Slim USA
TTITLE19=J.B. Lenoir - Mama Talk to Your Daughter
TTITLE20=Muddy Waters - I'm Your Hoochie Coochie Man
TTITLE21=Willie Dixon and The All Stars - Walking the Blues
TTITLE22=Jimmy Rogers - Walking By Myself
TTITLE23=Jimmy McCracklin - Blues Blasters Boogie
TTITLE24=Junior Wells - Two-Headed Woman
EXTD=YEAR: 2008
EXTT0=
EXTT1=
EXTT2=
EXTT3=
EXTT4=
EXTT5=
EXTT6=
EXTT7=
EXTT8=
EXTT9=
EXTT10=
EXTT11=
EXTT12=
EXTT13=
EXTT14=
EXTT15=
EXTT16=
EXTT17=
EXTT18=
EXTT19=
EXTT20=
EXTT21=
EXTT22=
EXTT23=
EXTT24=
PLAYORDER=
